<?xml version="1.0" standalone="no"?>
<!DOCTYPE svg PUBLIC "-//W3C//DTD SVG 20010904//EN"
 "http://www.w3.org/TR/2001/REC-SVG-20010904/DTD/svg10.dtd">
<svg version="1.0" xmlns="http://www.w3.org/2000/svg"
 width="1563.000000pt" height="1563.000000pt" viewBox="0 0 1563.000000 1563.000000"
 preserveAspectRatio="xMidYMid meet">
<metadata>
Created by potrace 1.16, written by Peter Selinger 2001-2019
</metadata>
<g transform="translate(0.000000,1563.000000) scale(0.100000,-0.100000)"
fill="#000000" stroke="none">
<path d="M0 7815 l0 -7815 7815 0 7815 0 0 7815 0 7815 -7815 0 -7815 0 0
-7815z m8689 3890 c39 -20 78 -69 91 -113 6 -22 10 -184 10 -409 l0 -373 -50
0 -50 0 0 379 c0 368 -1 379 -21 405 l-20 26 -970 0 c-956 0 -969 0 -989 -20
-19 -19 -20 -33 -20 -435 l0 -415 -50 0 -50 0 0 418 c0 413 0 418 23 462 14
30 36 53 62 67 l40 23 983 0 c844 0 987 -2 1011 -15z m-849 -215 l0 -50 -160
0 -160 0 0 50 0 50 160 0 160 0 0 -50z m-1565 -64 c105 -80 97 -239 -17 -309
l-48 -30 0 -136 0 -136 112 -112 113 -113 407 0 408 0 0 -50 0 -50 -427 0
-428 0 -142 142 -143 143 0 162 c0 137 -2 163 -15 163 -19 0 -83 57 -99 89
-47 91 -14 194 79 253 47 30 150 22 200 -16z m2307 -83 c16 -15 18 -35 18
-225 l0 -208 -50 0 -50 0 0 175 0 175 -825 0 -825 0 0 -255 0 -255 -50 0 -50
0 0 285 c0 272 1 286 20 305 20 20 33 20 907 20 811 0 888 -1 905 -17z m-661
-263 c16 -9 19 -22 19 -85 l0 -75 -50 0 -50 0 0 35 0 35 -165 0 -165 0 0
-1000 0 -1000 165 0 165 0 0 35 0 35 50 0 50 0 0 -75 c0 -63 -3 -76 -19 -85
-12 -6 -109 -10 -247 -10 -198 0 -230 2 -246 17 -17 15 -18 62 -18 1080 0
1050 0 1063 20 1083 19 19 33 20 246 20 136 0 233 -4 245 -10z m520 -248 c257
-85 466 -284 559 -534 59 -159 71 -351 31 -512 -136 -559 -757 -846 -1262
-585 -42 22 -90 50 -107 63 l-32 23 28 36 c15 20 31 36 35 37 5 0 23 -11 41
-25 46 -35 169 -90 251 -111 94 -24 276 -25 364 -1 159 43 264 102 372 208
218 217 290 524 190 816 -67 195 -232 377 -416 458 -234 104 -517 88 -726 -41
-39 -24 -74 -44 -78 -44 -14 0 -53 62 -47 75 8 23 154 103 236 130 119 40 154
44 315 41 137 -3 159 -6 246 -34z m-86 -197 c216 -55 392 -218 469 -434 28
-79 30 -97 30 -211 0 -108 -4 -136 -27 -206 -100 -303 -406 -497 -717 -454
-164 22 -280 82 -395 201 -124 130 -185 282 -185 459 0 116 17 189 71 298 80
163 234 291 414 343 78 23 258 25 340 4z m925 -95 l0 -50 -135 0 -135 0 0 50
0 50 135 0 135 0 0 -50z m-4452 -295 c1 -76 -1 -142 -6 -147 -5 -5 -16 -6 -25
-2 -14 5 -17 22 -17 106 l0 101 -82 -79 c-268 -257 -753 -550 -1280 -772 -192
-81 -245 -99 -257 -87 -18 18 1 29 139 84 557 224 1079 530 1362 799 l91 87
-99 5 c-79 4 -99 8 -99 20 0 12 23 16 125 20 69 3 130 5 135 5 6 -1 11 -57 13
-140z m6960 4 c2 -137 -4 -167 -32 -156 -13 5 -16 24 -16 108 l0 102 -82 -79
c-276 -264 -775 -562 -1323 -789 -169 -70 -209 -83 -218 -68 -11 17 9 29 118
73 573 227 1105 538 1394 815 l83 80 -98 5 c-79 4 -99 8 -99 20 0 12 23 16
125 20 69 3 130 5 135 5 6 -1 11 -56 13 -136z m-4538 11 l0 -50 -350 0 -350 0
0 50 0 50 350 0 350 0 0 -50z m2480 -90 l0 -50 -292 2 -293 3 -3 48 -3 47 295
0 296 0 0 -50z m-3545 -25 c23 -13 50 -41 63 -64 l23 -41 490 0 489 0 0 -50 0
-50 -490 0 -490 0 -20 -40 c-44 -87 -156 -123 -245 -80 -117 57 -142 214 -47
303 64 60 148 69 227 22z m-741 -21 c3 -9 6 -404 6 -879 0 -721 -2 -864 -14
-874 -9 -8 -69 -11 -192 -9 l-179 3 -3 888 -2 887 189 0 c163 0 190 -2 195
-16z m6954 -871 l-3 -888 -185 0 -185 0 -3 888 -2 887 190 0 190 0 -2 -887z
m-7414 661 c3 -9 6 -357 6 -774 0 -632 -2 -759 -14 -769 -9 -8 -69 -11 -192
-9 l-179 3 -3 770 c-1 424 0 776 3 783 3 9 50 12 189 12 158 0 185 -2 190 -16z
m6954 -766 l-3 -783 -185 0 -185 0 -3 770 c-1 424 0 776 3 783 3 9 51 12 190
12 l185 0 -2 -782z m-2560 660 l3 -48 -120 0 -121 0 0 43 c0 24 3 47 7 51 4 3
57 5 117 4 l111 -3 3 -47z m-2128 -98 l0 -50 -350 0 -350 0 0 50 0 50 350 0
350 0 0 -50z m-2722 -659 c1 -488 -1 -667 -9 -678 -9 -11 -48 -13 -193 -11
l-181 3 -3 665 c-1 366 0 671 3 678 3 10 48 12 192 10 l188 -3 3 -664z m6956
653 c3 -9 6 -309 6 -669 0 -543 -2 -654 -14 -664 -9 -8 -69 -11 -192 -9 l-179
3 -3 665 c-1 366 0 671 3 678 3 9 50 12 189 12 158 0 185 -2 190 -16z m-4234
-264 l0 -50 -407 0 -408 0 -112 -112 -113 -113 0 -141 c0 -139 0 -142 23 -148
30 -7 87 -64 103 -103 42 -100 -21 -225 -128 -253 -131 -36 -265 96 -229 225
13 49 56 103 97 122 l34 17 0 160 0 160 143 143 143 143 427 0 427 0 0 -50z
m2310 0 l0 -50 -275 0 -275 0 0 50 0 50 275 0 275 0 0 -50z m-5495 -545 l0
-530 -179 -3 c-123 -2 -183 1 -192 9 -12 9 -14 101 -14 529 0 284 3 520 7 524
4 3 90 5 192 4 l186 -3 0 -530z m6960 0 l0 -530 -190 0 -190 0 -3 520 c-1 286
0 526 3 533 3 10 48 12 192 10 l188 -3 0 -530z m-4355 -79 c0 -392 1 -415 19
-437 l19 -24 954 -3 c667 -2 961 1 979 9 15 5 31 22 38 35 7 17 11 142 11 399
l0 375 50 0 50 0 0 -371 c0 -235 -4 -386 -11 -414 -12 -46 -58 -101 -97 -116
-13 -5 -459 -9 -1011 -9 l-988 0 -34 23 c-18 12 -44 40 -56 62 -23 40 -23 43
-23 463 l0 422 50 0 50 0 0 -414z m180 159 l0 -255 825 0 825 0 0 175 0 175
50 0 50 0 0 -215 c0 -202 -1 -215 -19 -225 -13 -7 -315 -10 -910 -10 l-890 0
-15 22 c-14 19 -16 65 -16 305 l0 283 50 0 50 0 0 -255z m-3242 -232 l-3 -378
-179 -3 c-123 -2 -183 1 -192 9 -11 9 -14 76 -14 364 0 195 3 360 6 369 5 14
32 16 195 16 l189 0 -2 -377z m6960 0 l-3 -378 -179 -3 c-123 -2 -183 1 -192
9 -11 9 -14 78 -14 374 0 199 3 365 7 368 3 4 91 7 195 7 l188 0 -2 -377z
m-3380 -255 l3 -48 -130 0 -131 0 0 43 c0 24 3 47 7 51 4 3 61 5 127 4 l121
-3 3 -47z m612 2 l0 -50 -125 0 -125 0 0 50 0 50 125 0 125 0 0 -50z m620 0
l0 -50 -125 0 -125 0 0 50 0 50 125 0 125 0 0 -50z m-2812 -212 c3 -17 -63
-18 -1272 -18 -1270 0 -1276 0 -1276 20 0 20 5 20 1272 18 1203 -3 1273 -4
1276 -20z m6960 0 c3 -17 -63 -18 -1272 -18 -1270 0 -1276 0 -1276 20 0 20 5
20 1272 18 1203 -3 1273 -4 1276 -20z m-5206 -989 c122 -26 226 -106 274 -213
24 -51 28 -74 28 -141 -1 -151 -72 -262 -209 -327 -66 -31 -76 -33 -180 -33
-103 0 -114 2 -177 32 -36 17 -85 50 -108 73 -134 134 -138 353 -10 493 92
101 239 146 382 116z m-4047 -32 c79 -37 128 -75 121 -94 -8 -21 -49 -72 -59
-72 -4 -1 -26 13 -49 29 -187 136 -443 25 -441 -190 1 -108 40 -172 131 -217
49 -24 69 -28 142 -28 86 0 142 18 192 62 23 21 39 12 62 -31 18 -34 18 -37 2
-54 -9 -11 -40 -31 -70 -45 -207 -101 -442 -37 -536 148 -33 64 -35 74 -35
164 0 86 3 102 29 154 48 94 144 170 251 198 17 5 68 7 115 6 68 -3 97 -9 145
-30z m789 19 c67 -20 114 -61 142 -120 31 -67 31 -119 -2 -185 -23 -46 -79
-101 -116 -113 -6 -2 30 -66 80 -141 51 -75 92 -139 92 -142 0 -3 -29 -5 -65
-5 l-65 0 -90 135 -90 135 -100 0 -100 0 0 -135 0 -135 -55 0 -55 0 0 360 0
360 188 0 c134 0 202 -4 236 -14z m615 -147 l119 -161 69 99 c38 54 89 126
113 161 l44 62 63 0 c35 0 63 -3 63 -7 0 -5 -68 -100 -150 -213 l-150 -204 0
-143 0 -143 -55 0 -55 0 0 143 0 142 -160 209 c-88 114 -160 210 -160 212 0 2
32 4 70 4 l70 0 119 -161z m2001 106 l0 -55 -120 0 -120 0 0 -300 0 -300 -55
0 -55 0 0 300 0 300 -120 0 -120 0 0 48 c0 27 3 52 7 55 3 4 136 7 295 7 l288
0 0 -55z m1700 0 l0 -55 -120 0 -120 0 0 -300 0 -300 -55 0 -55 0 0 300 0 300
-120 0 -120 0 0 55 0 55 295 0 295 0 0 -55z m644 41 c67 -20 114 -61 142 -120
31 -67 31 -119 -2 -185 -23 -46 -79 -101 -116 -113 -6 -2 30 -66 80 -141 51
-75 92 -139 92 -142 0 -3 -29 -5 -65 -5 l-65 0 -90 135 -90 135 -100 0 -100 0
0 -135 0 -135 -55 0 -55 0 0 360 0 360 188 0 c134 0 202 -4 236 -14z m976 -41
l0 -55 -205 0 -205 0 0 -90 0 -90 175 0 175 0 0 -55 0 -55 -175 0 -175 0 0
-100 0 -100 205 0 205 0 0 -55 0 -55 -265 0 -265 0 0 348 c0 192 3 352 7 355
3 4 123 7 265 7 l258 0 0 -55z m596 -202 c125 -142 234 -266 243 -276 16 -16
17 2 13 258 l-4 275 56 0 56 0 0 -355 0 -355 -54 0 -54 0 -243 269 c-134 149
-244 269 -245 268 -1 -1 2 -40 6 -87 5 -47 9 -167 9 -267 l1 -183 -55 0 -55 0
0 355 0 355 49 0 50 0 227 -257z m1004 -23 c135 -153 245 -278 246 -277 0 1
-3 40 -7 87 -4 47 -8 172 -8 278 l-1 192 55 0 55 0 0 -355 0 -355 -53 0 -53 0
-243 270 c-134 149 -244 270 -245 270 -1 0 1 -30 5 -67 5 -38 8 -159 8 -270
l1 -203 -55 0 -55 0 0 355 0 355 53 0 52 -1 245 -279z m1095 256 c147 -53 226
-171 227 -336 0 -142 -70 -258 -191 -317 -55 -28 -59 -28 -278 -31 l-223 -4 0
350 c0 192 3 352 8 356 4 4 97 6 207 4 160 -4 210 -8 250 -22z m-6900 -5 c169
-77 171 -311 3 -395 -49 -24 -61 -26 -195 -26 l-143 0 0 -135 0 -135 -55 0
-55 0 0 355 0 355 203 0 c174 0 208 -3 242 -19z m-854 -1101 c20 -11 27 -64 9
-75 -6 -4 -2 -16 10 -32 22 -28 19 -59 -8 -80 -9 -8 -46 -13 -89 -13 l-73 0 0
105 0 105 66 0 c36 0 74 -5 85 -10z m252 -1 c37 -19 57 -52 57 -94 0 -62 -45
-105 -110 -105 -38 0 -86 24 -100 49 -13 25 -13 87 0 111 23 43 105 63 153 39z
m303 -23 c48 -48 47 -95 -1 -143 -33 -33 -38 -35 -87 -31 -40 4 -57 11 -75 32
-34 40 -39 74 -17 115 23 42 55 61 108 61 30 0 45 -7 72 -34z m242 18 c18 -12
20 -19 12 -29 -9 -11 -16 -11 -39 2 -34 20 -84 11 -79 -15 2 -10 22 -22 53
-30 28 -8 56 -19 63 -24 20 -17 14 -65 -10 -82 -50 -35 -162 -6 -145 38 6 16
9 16 33 -3 31 -24 62 -27 89 -8 25 19 11 36 -38 44 -42 6 -87 41 -87 67 0 45
102 73 148 40z m834 -13 c28 -25 33 -36 33 -76 0 -40 -5 -51 -33 -76 -26 -23
-42 -29 -78 -29 -39 0 -51 5 -80 34 -26 26 -34 42 -34 71 0 29 8 45 34 71 29
29 41 34 80 34 36 0 52 -6 78 -29z m130 -42 c3 -60 8 -74 27 -90 13 -11 29
-19 36 -19 7 0 23 8 36 19 19 16 24 30 27 90 3 52 8 71 18 71 11 0 14 -18 14
-76 0 -70 -2 -78 -29 -105 -22 -21 -39 -29 -66 -29 -27 0 -44 8 -66 29 -27 27
-29 35 -29 105 0 58 3 76 14 76 10 0 15 -19 18 -71z m388 51 c26 -26 26 -64 0
-90 -20 -20 -20 -21 -2 -48 34 -48 34 -52 13 -52 -13 0 -31 15 -47 40 -21 31
-33 40 -55 40 -27 0 -29 -3 -29 -40 0 -29 -4 -40 -15 -40 -12 0 -15 18 -15
105 l0 105 65 0 c52 0 69 -4 85 -20z m362 3 c24 -21 23 -68 -2 -93 -14 -14
-33 -20 -65 -20 l-45 0 0 -40 c0 -33 -3 -40 -20 -40 -19 0 -20 7 -20 105 l0
105 67 0 c48 0 72 -5 85 -17z m236 1 c29 -20 31 -78 2 -96 -19 -12 -19 -13 6
-55 23 -40 24 -43 6 -43 -11 0 -30 17 -46 40 -19 29 -33 40 -51 40 -22 0 -25
-4 -25 -40 0 -33 -3 -40 -20 -40 -19 0 -20 7 -20 105 l0 105 63 0 c40 0 70 -5
85 -16z m268 -3 c92 -56 44 -191 -66 -191 -61 0 -110 47 -110 105 0 86 98 133
176 86z m494 4 c0 -12 -13 -15 -60 -15 l-60 0 0 -30 c0 -29 1 -30 50 -30 38 0
50 -4 50 -15 0 -11 -12 -15 -50 -15 -49 0 -50 -1 -50 -30 l0 -30 60 0 c47 0
60 -3 60 -15 0 -12 -15 -15 -75 -15 l-75 0 0 105 0 105 75 0 c60 0 75 -3 75
-15z m231 -1 c24 -12 28 -18 19 -29 -9 -11 -17 -11 -45 1 -54 22 -105 -7 -105
-61 0 -55 58 -87 109 -62 30 15 41 13 41 -8 0 -17 -45 -35 -86 -35 -51 0 -104
53 -104 105 0 29 8 45 34 71 39 39 86 45 137 18z m452 -56 l24 -73 27 58 c33
76 45 73 84 -22 l18 -43 24 76 c18 58 28 76 42 76 10 0 18 -2 18 -4 0 -23 -75
-206 -85 -206 -7 0 -23 25 -35 55 -12 30 -26 55 -30 55 -4 0 -18 -25 -30 -55
-12 -30 -28 -55 -35 -55 -8 0 -28 44 -48 105 -33 96 -34 105 -17 105 14 0 24
-18 43 -72z m747 27 l0 -45 60 0 60 0 0 45 c0 33 4 45 15 45 12 0 15 -18 15
-105 0 -85 -3 -105 -14 -105 -10 0 -16 14 -18 43 l-3 42 -57 3 -58 3 0 -46 c0
-38 -3 -45 -20 -45 -19 0 -20 7 -20 105 0 98 1 105 20 105 17 0 20 -7 20 -45z
m382 -32 c3 -72 5 -78 30 -92 25 -14 29 -14 55 5 25 19 28 28 31 93 2 54 6 71
17 71 12 0 15 -16 15 -74 0 -66 -3 -78 -26 -105 -33 -40 -89 -43 -131 -7 -25
22 -28 31 -31 105 -4 76 -3 81 17 81 18 0 20 -7 23 -77z m366 61 c18 -12 20
-19 11 -30 -9 -12 -14 -11 -32 1 -27 19 -61 19 -77 0 -17 -21 -4 -34 43 -42
118 -19 100 -134 -19 -120 -52 5 -85 30 -67 48 8 8 17 7 34 -5 29 -20 73 -21
89 -1 17 21 6 31 -47 45 -60 15 -73 25 -73 61 0 53 86 80 138 43z"/>
<path d="M6143 11362 c-12 -2 -34 -17 -49 -34 -31 -38 -27 -81 12 -115 55 -50
144 -13 144 59 0 59 -49 100 -107 90z"/>
<path d="M8093 10560 c-159 -29 -306 -131 -397 -277 -79 -127 -100 -318 -51
-470 97 -306 433 -474 736 -369 166 58 301 192 359 359 30 86 38 231 16 317
-51 203 -207 366 -405 424 -69 20 -191 28 -258 16z m231 -186 c20 -19 20 -34
1 -61 -14 -21 -13 -21 28 -28 92 -15 175 -74 214 -154 25 -51 30 -195 9 -256
-32 -96 -124 -170 -223 -182 -54 -6 -77 9 -71 48 4 26 20 36 69 44 43 7 94 39
123 78 18 24 21 43 21 126 0 92 -2 100 -29 135 -31 42 -94 75 -140 76 l-29 0
21 -23 c35 -37 23 -77 -22 -77 -28 0 -146 118 -146 146 0 24 119 144 143 144
9 0 23 -7 31 -16z m-230 -100 c31 -31 13 -74 -31 -74 -32 0 -93 -26 -122 -53
-59 -54 -79 -173 -42 -252 32 -69 96 -115 158 -115 25 0 25 1 10 18 -35 38
-10 90 36 78 29 -7 137 -118 137 -141 0 -23 -108 -134 -137 -141 -46 -12 -71
40 -36 78 15 17 15 18 -9 18 -48 0 -125 30 -166 66 -148 126 -130 394 33 490
74 43 143 55 169 28z"/>
<path d="M6031 10054 c-63 -53 -26 -154 56 -154 48 0 83 37 83 87 -1 42 -13
63 -47 81 -33 18 -59 14 -92 -14z"/>
<path d="M5100 9255 l0 -845 150 0 150 0 0 845 0 845 -150 0 -150 0 0 -845z"/>
<path d="M12060 9255 l0 -845 150 0 150 0 0 845 0 845 -150 0 -150 0 0 -845z"/>
<path d="M4640 9150 l0 -740 150 0 150 0 0 740 0 740 -150 0 -150 0 0 -740z"/>
<path d="M11600 9150 l0 -740 150 0 150 0 0 740 0 740 -150 0 -150 0 0 -740z"/>
<path d="M4180 9503 c0 -98 3 -384 7 -635 l6 -458 149 0 148 0 0 635 0 635
-155 0 -155 0 0 -177z"/>
<path d="M11140 9083 c0 -329 3 -615 6 -635 l7 -38 148 0 149 0 0 635 0 635
-155 0 -155 0 0 -597z"/>
<path d="M6107 8770 c-50 -39 -42 -117 15 -146 59 -30 128 14 128 80 -1 72
-85 111 -143 66z"/>
<path d="M3730 8900 l0 -490 150 0 150 0 0 490 0 490 -150 0 -150 0 0 -490z"/>
<path d="M10687 9382 c-3 -4 -3 -224 0 -490 l6 -482 149 0 148 0 0 490 0 490
-149 0 c-83 0 -152 -3 -154 -8z"/>
<path d="M3270 8745 l0 -335 150 0 150 0 0 335 0 335 -150 0 -150 0 0 -335z"/>
<path d="M10230 8745 l0 -335 150 0 150 0 0 335 0 335 -150 0 -150 0 0 -335z"/>
<path d="M7188 7177 c-51 -15 -64 -23 -120 -76 -99 -92 -85 -281 27 -367 69
-52 196 -69 286 -39 103 35 169 129 169 240 -1 141 -100 239 -252 250 -37 3
-83 -1 -110 -8z"/>
<path d="M3790 7065 l0 -115 135 0 c151 0 184 9 210 60 21 41 19 83 -7 115
-35 45 -74 55 -213 55 l-125 0 0 -115z"/>
<path d="M8750 7065 l0 -115 135 0 c151 0 184 9 210 60 21 41 19 83 -7 115
-35 45 -74 55 -213 55 l-125 0 0 -115z"/>
<path d="M12390 6935 l0 -245 133 0 c161 0 199 10 254 64 100 101 91 297 -19
376 -51 38 -115 50 -253 50 l-115 0 0 -245z"/>
<path d="M5500 7060 l0 -110 130 0 c149 0 178 9 204 64 20 42 20 59 1 96 -26
50 -59 60 -205 60 l-130 0 0 -110z"/>
<path d="M5140 6127 c-35 -18 -48 -61 -30 -94 44 -78 172 -28 145 56 -6 21
-52 51 -77 51 -7 0 -24 -6 -38 -13z"/>
<path d="M5430 6133 c-52 -20 -68 -84 -30 -118 47 -42 133 -10 133 50 0 45
-60 85 -103 68z"/>
<path d="M6510 6133 c-32 -12 -50 -37 -50 -68 0 -41 30 -69 75 -69 91 0 104
119 15 138 -14 2 -32 2 -40 -1z"/>
<path d="M7899 6129 c-36 -14 -54 -54 -39 -90 22 -53 113 -60 139 -10 35 64
-29 127 -100 100z"/>
</g>
</svg>
