<?xml version="1.0" standalone="no"?>
<!DOCTYPE svg PUBLIC "-//W3C//DTD SVG 20010904//EN"
 "http://www.w3.org/TR/2001/REC-SVG-20010904/DTD/svg10.dtd">
<svg version="1.0" xmlns="http://www.w3.org/2000/svg"
 width="640.000000pt" height="640.000000pt" viewBox="0 0 640.000000 640.000000"
 preserveAspectRatio="xMidYMid meet">
<metadata>
Created by potrace 1.16, written by Peter Selinger 2001-2019
</metadata>
<g transform="translate(0.000000,640.000000) scale(0.100000,-0.100000)"
fill="#000000" stroke="none">
<path d="M2715 4775 c-25 -24 -25 -27 -25 -200 0 -168 1 -175 20 -175 19 0 20
8 22 178 l3 177 399 3 c286 1 403 -1 412 -9 11 -9 14 -48 14 -169 0 -153 1
-158 20 -153 19 5 20 14 20 165 0 155 -1 159 -25 183 l-24 25 -406 0 -406 0
-24 -25z"/>
<path d="M2493 4690 c-48 -19 -59 -96 -18 -128 22 -17 25 -28 25 -83 l0 -63
57 -58 57 -58 178 0 c152 0 178 2 178 15 0 13 -25 15 -167 15 l-168 0 -47 49
c-47 48 -48 51 -48 110 0 47 3 61 14 61 20 0 46 39 46 67 0 26 -37 69 -65 76
-11 3 -30 2 -42 -3z"/>
<path d="M2770 4525 c0 -104 2 -125 15 -125 12 0 15 18 15 105 l0 105 340 0
340 0 0 -70 c0 -64 2 -70 20 -70 20 0 21 5 18 88 l-3 87 -372 3 -373 2 0 -125z"/>
<path d="M3036 4524 c-9 -24 -7 -857 2 -872 6 -9 35 -12 108 -10 l99 3 3 33
c3 27 0 32 -17 32 -12 0 -21 -7 -21 -15 0 -12 -14 -15 -70 -15 l-70 0 0 410 0
410 69 0 c52 0 70 -4 75 -15 11 -30 36 -17 36 20 l0 35 -104 0 c-85 0 -105 -3
-110 -16z"/>
<path d="M3246 4440 c-36 -11 -116 -53 -116 -60 0 -3 4 -10 8 -17 6 -9 22 -5
62 15 70 34 175 42 249 17 138 -46 235 -197 216 -338 -8 -58 -32 -125 -52
-145 -7 -7 -13 -17 -13 -21 0 -4 -23 -26 -51 -49 -96 -78 -238 -94 -348 -38
-29 14 -57 24 -62 20 -22 -13 -4 -33 53 -59 269 -121 558 101 507 389 -13 76
-39 127 -95 186 -66 71 -140 103 -244 107 -47 1 -98 -2 -114 -7z"/>
<path d="M3244 4337 c-107 -57 -158 -137 -158 -247 0 -105 59 -202 152 -246
45 -21 137 -29 187 -15 147 39 233 190 191 335 -22 76 -93 154 -163 179 -68
24 -158 22 -209 -6z m215 -36 c221 -113 143 -444 -104 -444 -170 0 -287 179
-214 330 26 53 98 118 147 132 51 14 122 6 171 -18z"/>
<path d="M3357 4222 l-27 -28 29 -28 c19 -19 36 -26 47 -22 13 5 14 9 4 21
-16 19 -7 19 29 0 32 -16 41 -33 41 -79 0 -35 -30 -71 -65 -78 -11 -2 -21 -11
-23 -21 -8 -39 81 -9 113 39 28 43 16 120 -24 156 -17 15 -40 28 -52 28 -13 0
-19 6 -17 17 5 28 -26 26 -55 -5z"/>
<path d="M3228 4181 c-29 -26 -33 -36 -35 -85 -1 -53 1 -60 33 -91 19 -19 43
-35 54 -35 13 0 18 -5 14 -15 -10 -26 25 -29 52 -5 31 30 30 47 -2 77 -28 26
-50 26 -48 -1 2 -23 -19 -20 -44 7 -45 47 -21 127 43 143 36 9 32 34 -5 34
-19 0 -42 -11 -62 -29z"/>
<path d="M2470 4163 c-51 -19 -69 -93 -32 -126 29 -26 87 -22 110 8 19 24 20
25 218 27 180 3 199 5 202 21 3 16 -12 17 -202 17 -193 0 -205 1 -211 19 -3
11 -20 24 -37 30 -17 6 -31 11 -32 10 -1 0 -8 -3 -16 -6z"/>
<path d="M4952 3793 l3 -328 70 0 70 0 3 328 2 327 -75 0 -75 0 2 -327z m128
-3 l0 -320 -55 0 -55 0 0 320 0 320 55 0 55 0 0 -320z"/>
<path d="M4790 3750 l0 -290 65 0 c36 0 65 3 65 8 0 4 1 133 1 287 l0 280 -65
3 -66 3 0 -291z m118 -2 l-3 -273 -50 0 -50 0 -3 273 -2 272 55 0 55 0 -2
-272z"/>
<path d="M1975 3977 c-4 -13 -5 -160 -3 -327 l3 -305 73 -3 72 -3 0 331 0 330
-70 0 c-64 0 -70 -2 -75 -23z m133 -309 l-3 -313 -57 -3 -58 -3 0 316 0 315
60 0 60 0 -2 -312z"/>
<path d="M4614 3957 c-2 -7 -3 -120 -2 -252 l3 -240 68 -3 67 -3 0 256 0 255
-65 0 c-44 0 -67 -4 -71 -13z m126 -248 l0 -240 -52 3 -53 3 -3 238 -2 237 55
0 55 0 0 -241z"/>
<path d="M1810 3630 l0 -290 70 0 70 0 0 290 0 290 -70 0 -70 0 0 -290z m120
-5 l0 -275 -50 0 -50 0 0 88 c0 48 -3 171 -7 275 l-6 187 56 0 57 0 0 -275z"/>
<path d="M2557 3822 l-57 -58 0 -67 c0 -37 -4 -67 -9 -67 -21 0 -41 -33 -41
-67 0 -70 87 -101 129 -47 29 37 26 71 -9 104 -26 24 -30 35 -30 82 0 51 3 57
42 94 l42 39 171 5 c151 4 170 7 173 23 3 16 -10 17 -175 17 l-179 0 -57 -58z"/>
<path d="M4445 3848 c-3 -8 -4 -97 -3 -198 l3 -185 73 -3 72 -3 -2 198 -3 198
-68 3 c-49 2 -69 -1 -72 -10z m125 -193 l0 -185 -55 0 -55 0 0 185 0 185 55 0
55 0 0 -185z"/>
<path d="M1640 3590 l0 -250 70 0 70 0 0 250 0 250 -70 0 -70 0 0 -250z m125
0 l0 -235 -52 -3 -53 -3 0 241 0 241 53 -3 52 -3 0 -235z"/>
<path d="M2690 3605 c0 -173 0 -176 24 -200 l24 -24 407 0 406 -1 25 25 c23
24 24 28 24 185 0 153 -1 160 -20 160 -19 0 -20 -7 -20 -154 0 -118 -3 -156
-14 -165 -9 -8 -126 -10 -412 -9 l-399 3 -3 178 c-2 169 -3 177 -22 177 -19 0
-20 -7 -20 -175z"/>
<path d="M2770 3655 l0 -125 373 2 372 3 3 88 c3 82 2 87 -18 87 -18 0 -20 -6
-20 -70 l0 -70 -340 0 -340 0 0 105 c0 87 -3 105 -15 105 -13 0 -15 -21 -15
-125z"/>
<path d="M4280 3603 l0 -143 70 0 70 0 0 139 c0 159 3 154 -89 149 l-51 -3 0
-142z m120 -4 l0 -130 -52 3 -53 3 -3 128 -3 127 56 0 55 0 0 -131z"/>
<path d="M1477 3734 c-4 -4 -7 -94 -7 -201 l0 -193 70 0 70 0 -2 198 -3 197
-60 3 c-34 2 -64 0 -68 -4z m123 -199 l0 -186 -57 3 -58 3 -3 183 -2 182 60 0
60 0 0 -185z"/>
<path d="M1300 3480 l0 -140 70 0 70 0 0 140 0 140 -70 0 -70 0 0 -140z m125
0 l0 -125 -52 -3 -53 -3 0 131 0 131 53 -3 52 -3 0 -125z"/>
<path d="M1240 3310 c0 -7 163 -10 470 -10 307 0 470 3 470 10 0 7 -163 10
-470 10 -307 0 -470 -3 -470 -10z"/>
<path d="M1100 2999 c-124 -50 -134 -221 -17 -281 47 -24 131 -21 173 7 26 17
28 23 15 43 -6 10 -15 9 -44 -8 -46 -27 -103 -20 -147 17 -26 21 -30 32 -30
75 0 41 5 54 29 79 24 24 38 29 76 29 26 0 60 -8 75 -17 24 -14 31 -14 44 -4
21 17 12 29 -38 52 -45 20 -97 23 -136 8z"/>
<path d="M1394 2997 c-2 -7 -3 -76 -2 -152 3 -132 4 -140 23 -140 17 0 20 8
23 58 l3 57 43 0 c41 0 45 -3 79 -54 24 -36 44 -55 61 -58 34 -7 33 0 -9 61
l-35 51 32 29 c45 40 45 92 0 132 -31 27 -37 29 -122 29 -65 0 -92 -4 -96 -13z
m180 -48 c31 -25 33 -42 6 -69 -16 -16 -33 -20 -80 -20 l-60 0 0 55 0 55 54 0
c39 0 60 -6 80 -21z"/>
<path d="M1740 3003 c0 -9 112 -157 122 -161 4 -2 8 -35 8 -74 0 -66 1 -69 23
-66 20 3 22 9 25 68 3 61 6 69 58 138 69 91 73 102 42 102 -17 0 -34 -16 -68
-66 -24 -36 -47 -67 -51 -69 -3 -2 -30 27 -59 65 -39 52 -59 70 -76 70 -13 0
-24 -3 -24 -7z"/>
<path d="M2137 3003 c-8 -8 -9 -287 -1 -295 3 -3 14 -4 25 -1 16 4 19 14 19
59 l0 54 71 0 c65 0 73 2 100 29 21 22 29 39 29 66 0 27 -8 44 -29 66 -28 28
-33 29 -119 29 -49 0 -92 -3 -95 -7z m178 -58 c30 -29 31 -39 5 -65 -16 -16
-33 -20 -80 -20 l-60 0 0 55 0 55 55 0 c46 0 60 -4 80 -25z"/>
<path d="M2460 2985 c0 -23 3 -25 50 -25 l50 0 0 -131 c0 -130 0 -130 23 -127
21 3 22 7 25 131 l3 127 49 0 c47 0 50 2 50 25 l0 25 -125 0 -125 0 0 -25z"/>
<path d="M2871 2988 c-110 -59 -109 -218 2 -268 118 -54 247 16 247 133 0 122
-136 195 -249 135z m133 -32 c46 -19 66 -52 66 -107 0 -40 -5 -51 -30 -73 -43
-35 -92 -43 -140 -21 -94 42 -88 165 10 204 35 14 56 13 94 -3z"/>
<path d="M3200 2985 c0 -23 3 -25 50 -25 l50 0 0 -130 c0 -123 1 -130 20 -130
19 0 20 7 20 130 l0 130 55 0 c52 0 55 1 55 25 l0 25 -125 0 -125 0 0 -25z"/>
<path d="M3550 2857 c0 -146 1 -153 20 -153 18 0 20 7 20 58 l0 58 48 0 c47
-1 47 -1 84 -60 36 -58 45 -63 85 -51 2 1 -13 25 -32 55 l-35 55 30 30 c21 20
30 39 30 61 0 74 -43 100 -165 100 l-85 0 0 -153z m170 100 c31 -15 37 -52 14
-78 -13 -15 -31 -19 -81 -19 l-63 0 0 55 0 55 53 0 c28 0 63 -6 77 -13z"/>
<path d="M3929 3006 c-2 -2 -3 -71 -1 -153 l3 -148 107 2 c131 2 121 0 118 19
-2 13 -18 16 -92 18 l-89 1 0 45 0 45 78 3 c68 3 77 5 77 22 0 17 -9 19 -77
22 l-78 3 -3 38 -3 37 89 0 c80 0 90 2 95 19 3 11 2 22 -1 25 -6 7 -216 8
-223 2z"/>
<path d="M4270 2854 l0 -155 23 3 c21 3 22 6 22 117 l-1 114 106 -111 c58 -61
115 -113 128 -117 l22 -6 0 156 0 156 -22 -3 c-22 -3 -23 -6 -21 -120 1 -65 0
-118 -1 -118 -1 0 -49 54 -106 119 -74 85 -112 120 -127 120 -23 1 -23 0 -23
-155z"/>
<path d="M4702 2858 c3 -128 5 -153 18 -153 12 0 16 22 20 115 l5 114 99 -112
c96 -108 124 -130 146 -117 6 4 10 66 10 156 l0 149 -26 0 -27 0 6 -121 5
-122 -22 24 c-12 13 -62 68 -110 122 -53 58 -96 97 -107 97 -18 0 -19 -8 -17
-152z"/>
<path d="M5132 2860 l3 -153 98 0 c108 1 134 11 167 66 25 41 26 118 3 159
-31 52 -74 70 -179 76 l-95 5 3 -153z m200 80 c39 -30 53 -73 39 -119 -16 -55
-51 -75 -131 -75 l-65 -1 -3 108 -3 107 69 0 c54 0 75 -4 94 -20z"/>
</g>
</svg>
